
<svg width="72" height="72" viewBox="0 0 512 512" xmlns="http://www.w3.org/2000/svg">
  <defs>
    <linearGradient id="medicalGradient72" x1="0%" y1="0%" x2="100%" y2="100%">
      <stop offset="0%" style="stop-color:#2c3e50;stop-opacity:1" />
      <stop offset="100%" style="stop-color:#3498db;stop-opacity:1" />
    </linearGradient>
    <linearGradient id="earGradient72" x1="0%" y1="0%" x2="100%" y2="100%">
      <stop offset="0%" style="stop-color:#ffffff;stop-opacity:1" />
      <stop offset="100%" style="stop-color:#ecf0f1;stop-opacity:1" />
    </linearGradient>
  </defs>
  
  <!-- Fondo circular -->
  <circle cx="256" cy="256" r="250" fill="url(#medicalGradient72)" stroke="#1a252f" stroke-width="4"/>
  
  <!-- Oído estilizado -->
  <path d="M 180 200 
           C 180 180, 200 160, 220 160
           C 240 160, 250 180, 250 200
           L 250 240
           C 250 260, 240 280, 220 280
           C 200 280, 180 260, 180 240
           Z" 
        fill="url(#earGradient72)" 
        stroke="#2c3e50" 
        stroke-width="3"/>
  
  <!-- Detalles internos del oído -->
  <circle cx="210" cy="220" r="8" fill="#e74c3c"/>
  <circle cx="225" cy="235" r="5" fill="#e74c3c"/>
  <circle cx="195" cy="230" r="4" fill="#e74c3c"/>
  
  <!-- Ondas sonoras -->
  <path d="M 270 200 Q 290 190, 300 200" stroke="#ffffff" stroke-width="4" fill="none" opacity="0.9"/>
  <path d="M 275 220 Q 300 210, 310 220" stroke="#ffffff" stroke-width="4" fill="none" opacity="0.8"/>
  <path d="M 280 240 Q 310 230, 320 240" stroke="#ffffff" stroke-width="4" fill="none" opacity="0.7"/>
  
  <!-- Texto TAU -->
  <text x="256" y="340" font-family="Arial, sans-serif" font-size="48" font-weight="bold" fill="#ffffff" text-anchor="middle">
    TAU
  </text>
  
  <!-- Subtítulo -->
  <text x="256" y="370" font-family="Arial, sans-serif" font-size="16" fill="#ecf0f1" text-anchor="middle">
    Tamizaje Auditivo
  </text>
  
  <!-- Cruz médica decorativa -->
  <rect x="320" y="180" width="8" height="30" fill="#e74c3c"/>
  <rect x="311" y="189" width="26" height="8" fill="#e74c3c"/>
</svg>